<?xml version="1.0" encoding="utf-8"?>
<!-- Generator: Adobe Illustrator 22.1.0, SVG Export Plug-In . SVG Version: 6.00 Build 0)  -->
<svg version="1.1" id="Layer_1" xmlns="http://www.w3.org/2000/svg" xmlns:xlink="http://www.w3.org/1999/xlink" x="0px" y="0px"
	 viewBox="0 0 91.5 91.5" style="enable-background:new 0 0 91.5 91.5;" xml:space="preserve">
<style type="text/css">
	.st0{fill:#FFFFFF;stroke:#000000;stroke-width:2;stroke-miterlimit:10;}
	.st1{stroke:#020202;stroke-width:2;stroke-miterlimit:10;}
	.st2{fill:#FFFFFF;stroke:#FFFFFF;stroke-width:0.5;stroke-miterlimit:10;}
	.st3{fill:#EF3752;stroke:#EF3853;stroke-width:4;stroke-miterlimit:10;}
	.st4{fill:#5E4A9E;}
	.st5{fill:#FFFFFF;stroke:#000000;stroke-width:5;stroke-miterlimit:10;}
	.st6{fill:#4ABC8F;stroke:#4ABC8F;stroke-width:4;stroke-miterlimit:10;}
	.st7{fill:#C2C1C0;stroke:#C2C1C0;stroke-width:4;stroke-miterlimit:10;}
	.st8{fill:#EE7B91;stroke:#EE7B91;stroke-width:4;stroke-miterlimit:10;}
	.st9{fill:#EE7B91;}
	.st10{fill:#C2C1C0;}
	.st11{fill:none;stroke:#000000;stroke-width:3;stroke-miterlimit:10;}
	.st12{fill:#42286E;}
	.st13{fill:#FFFFFF;}
</style>
<g>
	<g>
		<path class="st9" d="M54.7,73.1H25.8c4.5,2,9.5,3.2,14.7,3.2c5.1,0,9.9-1.1,14.3-3L54.7,73.1z"/>
		<g>
			<path class="st9" d="M48.6,61.6l2.6-2.6H10c0.6,0.9,1.1,1.8,1.8,2.7L48.6,61.6L48.6,61.6z"/>
		</g>
		<g>
			<path class="st9" d="M57,53.1H7.2c0.3,0.7,0.6,1.4,0.9,2.1H55L57,53.1z"/>
			<path class="st9" d="M69.6,54.2l1.8,1h1.7c0.3-0.7,0.6-1.4,0.9-2.1h-6.2L69.6,54.2z"/>
		</g>
		<path class="st9" d="M48.6,67l-1.5-1.5H15c1.3,1.4,2.8,2.7,4.3,3.8h31.5L48.6,67z"/>
	</g>
	<path class="st9" d="M40.6,5C20.9,5,4.9,21,4.9,40.6c0,3,0.4,5.9,1.1,8.7h69.1c0.7-2.8,1.1-5.7,1.1-8.7C76.2,21,60.3,5,40.6,5z
		 M52.3,29.6c-1.9,3.8,0.8,7.1-0.3,9c-1,1.5-4.6,2-16.2-2c-0.6-0.2-1.2-0.5-1.7-1c-6.6-5.6-6.5-8.2-6.1-9.3c0.1-0.3,2.1-3.1,3.6-5.1
		c1-1.4,2.7-2.2,4.4-2.2c11.7,0.3,14.8,1.4,15.2,2.5c0.1,0.2,0.2,1.2,0.9,2.4c0.6,1.1,1.1,1.3,1.3,1.9
		C53.7,27.3,52.8,28.6,52.3,29.6z"/>
</g>
<g>
	<path class="st12" d="M81.7,87.6l4.1-4.1L74.3,71.9l4.1-4.1c1.8,0.5,3.9,0,5.3-1.5c1.5-1.5,2-3.6,1.4-5.5l-3,3l-3.7-0.3L78.2,60
		l3-3c-1.9-0.5-4,0-5.5,1.4c-1.4,1.4-1.9,3.5-1.5,5.3l-4.1,4.1L64,61.6l3.7-3.7l-6.2-3.5L51.3,64.7l4.8,4.8l3.7-3.7l6.2,6.2
		l-4.8,4.8c-1.8-0.5-3.9,0-5.3,1.5c-1.5,1.5-2,3.6-1.4,5.5l3-3l3.7,0.3l0.3,3.7l-3,3c1.9,0.5,4,0,5.5-1.4c1.4-1.4,1.9-3.5,1.5-5.3
		l4.8-4.8L81.7,87.6z"/>
</g>
</svg>
