<?xml version="1.0" encoding="utf-8"?>
<!-- Generator: Adobe Illustrator 22.1.0, SVG Export Plug-In . SVG Version: 6.00 Build 0)  -->
<svg version="1.1" xmlns="http://www.w3.org/2000/svg" xmlns:xlink="http://www.w3.org/1999/xlink" x="0px" y="0px"
	 viewBox="0 0 1000 1000" style="enable-background:new 0 0 1000 1000;" xml:space="preserve">
<style type="text/css">
	.st0{fill:#FFFFFF;}
</style>
<g id="Layer_2">
	<g>
		<g>
			<path class="st0" d="M570.2,939H429.8c-4,4.6-7.6,9.6-10.6,15h161.7C577.8,948.6,574.2,943.6,570.2,939z M500,907
				c-10.6,0-20.7,1.8-30.2,5h60.3C520.7,908.8,510.6,907,500,907z M584.9,962H415.1c-5.2,11.6-8.1,24.5-8.1,38h186
				C593,986.5,590.1,973.6,584.9,962z M547.4,920h-94.9c-5.3,3.2-10.3,6.9-14.9,11h124.7C557.8,926.9,552.8,923.2,547.4,920z"/>
		</g>
	</g>
</g>
<g id="Layer_1">
</g>
</svg>
